<svg width="36" height="36" viewBox="0 0 36 36" fill="none" xmlns="http://www.w3.org/2000/svg">
<rect width="36.0001" height="36" rx="18" fill="url(#paint0_linear_10313_61559)"/>
<path d="M11.391 24.4908H7.05078V11.3999H11.4997C12.7951 11.3999 13.9052 11.662 14.8299 12.1861C15.7589 12.706 16.4706 13.4539 16.9649 14.4297C17.4635 15.4056 17.7128 16.5711 17.7128 17.9262C17.7128 19.2898 17.4635 20.4638 16.9649 21.4482C16.4663 22.4283 15.744 23.1804 14.798 23.7046C13.8562 24.2287 12.7205 24.4908 11.391 24.4908ZM9.23048 22.5988H11.2823C12.2326 22.5988 13.0252 22.4219 13.6602 22.0682C14.2951 21.7145 14.7703 21.1904 15.0856 20.4958C15.4052 19.8012 15.565 18.9446 15.565 17.9262C15.565 16.912 15.4073 16.0618 15.092 15.3758C14.7767 14.6854 14.3079 14.1655 13.6858 13.8161C13.0679 13.4667 12.2987 13.2919 11.3782 13.2919H9.23048V22.5988Z" fill="white"/>
<path d="M18.6729 13.2408V11.3999H28.9577V13.2408H24.8988V24.4908H22.7383V13.2408H18.6729Z" fill="white"/>
<defs>
<linearGradient id="paint0_linear_10313_61559" x1="18.0001" y1="0" x2="18.0001" y2="36" gradientUnits="userSpaceOnUse">
<stop stop-color="#22D7FF"/>
<stop offset="1" stop-color="#00A3E9"/>
</linearGradient>
</defs>
</svg>
