<svg width="36" height="36" viewBox="0 0 36 36" fill="none" xmlns="http://www.w3.org/2000/svg">
<rect width="36.0001" height="36" rx="18" fill="url(#paint0_linear_10313_61557)"/>
<path d="M15.9885 14.4248C15.9246 13.8453 15.6582 13.3957 15.1895 13.0761C14.725 12.7522 14.1305 12.5903 13.4061 12.5903C12.8905 12.5903 12.4452 12.6691 12.0701 12.8268C11.6994 12.9845 11.4118 13.2018 11.2072 13.4788C11.0069 13.7515 10.9068 14.0626 10.9068 14.412C10.9025 14.7018 10.9686 14.9532 11.1049 15.1663C11.2456 15.3794 11.4288 15.5583 11.6547 15.7032C11.8848 15.8481 12.1341 15.9696 12.4025 16.0676C12.6753 16.1613 12.9437 16.2402 13.2079 16.3041L14.4608 16.6237C14.9168 16.7345 15.3685 16.8836 15.8159 17.0711C16.2633 17.2544 16.6703 17.493 17.0368 17.787C17.4075 18.0768 17.7037 18.4326 17.9253 18.8545C18.1511 19.2764 18.2641 19.7771 18.2641 20.3566C18.2641 21.1066 18.0702 21.7714 17.6824 22.351C17.2989 22.9305 16.7406 23.3843 16.0077 23.7125C15.279 24.0406 14.3947 24.2047 13.355 24.2047C12.3578 24.2047 11.4927 24.0491 10.7598 23.738C10.0268 23.427 9.45366 22.9774 9.04031 22.3893C8.63122 21.797 8.40749 21.0853 8.36914 20.2544H10.5297C10.5638 20.7231 10.7086 21.1109 10.9643 21.4177C11.2243 21.7245 11.5609 21.9547 11.9743 22.1081C12.3876 22.2572 12.8436 22.3318 13.3422 22.3318C13.8791 22.3318 14.3543 22.2487 14.7676 22.0825C15.181 21.912 15.5048 21.6777 15.7392 21.3794C15.9778 21.0811 16.0993 20.7338 16.1035 20.3375C16.0993 19.971 15.9928 19.6706 15.7839 19.4362C15.5794 19.1976 15.2939 19.0015 14.9274 18.8481C14.5652 18.6905 14.1518 18.552 13.6873 18.4326L12.166 18.0235C11.1007 17.7423 10.2591 17.3226 9.64116 16.7643C9.02326 16.2061 8.71644 15.4646 8.7207 14.5399C8.71644 13.7771 8.92099 13.1102 9.33434 12.5392C9.75196 11.9682 10.3166 11.525 11.0282 11.2096C11.7399 10.89 12.5432 10.7302 13.4381 10.7302C14.3457 10.7302 15.1447 10.89 15.8351 11.2096C16.5254 11.525 17.0688 11.9618 17.4651 12.52C17.8614 13.074 18.068 13.7089 18.0851 14.4248H15.9885Z" fill="white"/>
<path d="M20.2821 24.0001V10.9092H22.4618V22.1592H28.3041V24.0001H20.2821Z" fill="white"/>
<defs>
<linearGradient id="paint0_linear_10313_61557" x1="18.0001" y1="0" x2="18.0001" y2="36" gradientUnits="userSpaceOnUse">
<stop stop-color="#5779F0"/>
<stop offset="1" stop-color="#6457F0"/>
</linearGradient>
</defs>
</svg>
