<svg width="36" height="36" viewBox="0 0 36 36" fill="none" xmlns="http://www.w3.org/2000/svg">
<rect width="36.0001" height="36" rx="18" fill="url(#paint0_linear_10313_61561)"/>
<path d="M14.969 14.9446C14.905 14.3651 14.6387 13.9155 14.1699 13.5959C13.7055 13.272 13.111 13.1101 12.3866 13.1101C11.8709 13.1101 11.4256 13.1889 11.0506 13.3466C10.6799 13.5043 10.3922 13.7216 10.1877 13.9986C9.9874 14.2713 9.88726 14.5824 9.88726 14.9318C9.883 15.2216 9.94905 15.473 10.0854 15.6861C10.226 15.8991 10.4093 16.0781 10.6351 16.223C10.8652 16.3679 11.1145 16.4893 11.383 16.5874C11.6557 16.6811 11.9242 16.7599 12.1884 16.8239L13.4413 17.1435C13.8972 17.2543 14.3489 17.4034 14.7964 17.5909C15.2438 17.7741 15.6508 18.0128 16.0173 18.3068C16.388 18.5966 16.6842 18.9524 16.9058 19.3743C17.1316 19.7962 17.2445 20.2969 17.2445 20.8764C17.2445 21.6264 17.0506 22.2912 16.6629 22.8707C16.2793 23.4503 15.7211 23.9041 14.9881 24.2322C14.2594 24.5604 13.3752 24.7244 12.3354 24.7244C11.3383 24.7244 10.4732 24.5689 9.74024 24.2578C9.00729 23.9467 8.43413 23.4972 8.02078 22.9091C7.61168 22.3168 7.38796 21.6051 7.34961 20.7741H9.51013C9.54422 21.2429 9.68911 21.6307 9.94479 21.9375C10.2047 22.2443 10.5414 22.4744 10.9547 22.6278C11.3681 22.777 11.8241 22.8516 12.3226 22.8516C12.8596 22.8516 13.3347 22.7685 13.7481 22.6023C14.1614 22.4318 14.4853 22.1974 14.7197 21.8991C14.9583 21.6009 15.0798 21.2536 15.084 20.8572C15.0798 20.4908 14.9732 20.1903 14.7644 19.956C14.5599 19.7173 14.2744 19.5213 13.9079 19.3679C13.5457 19.2102 13.1323 19.0717 12.6678 18.9524L11.1465 18.5433C10.0812 18.2621 9.23953 17.8423 8.62163 17.2841C8.00373 16.7259 7.69691 15.9844 7.70117 15.0597C7.69691 14.2969 7.90146 13.63 8.31481 13.0589C8.73243 12.4879 9.29706 12.0447 10.0087 11.7294C10.7204 11.4098 11.5236 11.25 12.4185 11.25C13.3262 11.25 14.1252 11.4098 14.8155 11.7294C15.5059 12.0447 16.0492 12.4815 16.4455 13.0398C16.8418 13.5938 17.0485 14.2287 17.0656 14.9446H14.969Z" fill="white"/>
<path d="M26.3897 14.9446C26.3258 14.3651 26.0595 13.9155 25.5907 13.5959C25.1262 13.272 24.5318 13.1101 23.8073 13.1101C23.2917 13.1101 22.8464 13.1889 22.4714 13.3466C22.1006 13.5043 21.813 13.7216 21.6085 13.9986C21.4082 14.2713 21.308 14.5824 21.308 14.9318C21.3038 15.2216 21.3698 15.473 21.5062 15.6861C21.6468 15.8991 21.83 16.0781 22.0559 16.223C22.286 16.3679 22.5353 16.4893 22.8038 16.5874C23.0765 16.6811 23.345 16.7599 23.6092 16.8239L24.862 17.1435C25.318 17.2543 25.7697 17.4034 26.2171 17.5909C26.6646 17.7741 27.0715 18.0128 27.438 18.3068C27.8088 18.5966 28.1049 18.9524 28.3265 19.3743C28.5524 19.7962 28.6653 20.2969 28.6653 20.8764C28.6653 21.6264 28.4714 22.2912 28.0836 22.8707C27.7001 23.4503 27.1419 23.9041 26.4089 24.2322C25.6802 24.5604 24.796 24.7244 23.7562 24.7244C22.759 24.7244 21.894 24.5689 21.161 24.2578C20.4281 23.9467 19.8549 23.4972 19.4415 22.9091C19.0324 22.3168 18.8087 21.6051 18.7704 20.7741H20.9309C20.965 21.2429 21.1099 21.6307 21.3656 21.9375C21.6255 22.2443 21.9621 22.4744 22.3755 22.6278C22.7889 22.777 23.2448 22.8516 23.7434 22.8516C24.2803 22.8516 24.7555 22.7685 25.1688 22.6023C25.5822 22.4318 25.9061 22.1974 26.1404 21.8991C26.3791 21.6009 26.5005 21.2536 26.5048 20.8572C26.5005 20.4908 26.394 20.1903 26.1852 19.956C25.9806 19.7173 25.6951 19.5213 25.3286 19.3679C24.9664 19.2102 24.5531 19.0717 24.0886 18.9524L22.5673 18.5433C21.5019 18.2621 20.6603 17.8423 20.0424 17.2841C19.4245 16.7259 19.1177 15.9844 19.1219 15.0597C19.1177 14.2969 19.3222 13.63 19.7356 13.0589C20.1532 12.4879 20.7178 12.0447 21.4295 11.7294C22.1411 11.4098 22.9444 11.25 23.8393 11.25C24.747 11.25 25.546 11.4098 26.2363 11.7294C26.9267 12.0447 27.47 12.4815 27.8663 13.0398C28.2626 13.5938 28.4693 14.2287 28.4863 14.9446H26.3897Z" fill="white"/>
<defs>
<linearGradient id="paint0_linear_10313_61561" x1="18.0001" y1="0" x2="18.0001" y2="36" gradientUnits="userSpaceOnUse">
<stop stop-color="#F8935A"/>
<stop offset="1" stop-color="#F2764F"/>
</linearGradient>
</defs>
</svg>
